# xmcd CD database file
#
# Track frame offsets:
#	217
#	11410
#	23662
#	34515
#	50130
#	63752
#	76270
#	88130
#	102442
#	112875
#	122977
#	135527
#	146017
#	158157
#
# Disc length: 2305 seconds
#
# Revision: 0
# Processed by: cddbd v1.4PL0 Copyright (c) Steve Scherf et al.
# Submitted via: CDex 1.50beta9
#
DISCID=b008ff0e
DTITLE=JOHN HOGAN - TURN BACK THE YEARS
DYEAR=1900
DGENRE=Country
TTITLE0=A Stranger In Our House
TTITLE1=Your Cheatin Heart
TTITLE2=Little By Little
TTITLE3=Darcy Farrow
TTITLE4=UWhat What God Has Joined Together
TTITLE5=Letters Have No Arms
TTITLE6=Last Night I Saw You Crying On Your Sleep
TTITLE7=Turn Back The Years
TTITLE8=Arms Full Of Empty
TTITLE9=Border Of The Blues
TTITLE10=Jeannie Norman
TTITLE11=Half A Heart
TTITLE12=I Saw The Light
TTITLE13=Moonlight In Mayo
EXTD=
EXTT0=
EXTT1=
EXTT2=
EXTT3=
EXTT4=
EXTT5=
EXTT6=
EXTT7=
EXTT8=
EXTT9=
EXTT10=
EXTT11=
EXTT12=
EXTT13=
PLAYORDER=
